#!OML:ASF F:\VICON\USERDATA\INSTALL\rory3\rory3.ASF
:FULLY-SPECIFIED
:DEGREES
2157
root -0.356042 17.6973 15.6164 -900.485 50.8375 -179.181
lowerback 11.4014 0.394395 -2.79636
upperback 1.13582 0.248621 0.0394311
thorax -5.21719 0.214774 1.5767
lowerneck -17.3803 -4.11705 -9.566
upperneck 30.9211 -4.00669 6.54753
head 13.7472 -1.6093 3.68828
rclavicle -3.66509e-014 1.05356e-014
rhumerus -39.8096 -8.50362 -82.1307
rradius 29.8108
rwrist 5.04889
rhand -16.4978 8.04724
rfingers 7.12502
rthumb 9.71987 -21.7085
lclavicle -3.66509e-014 1.05356e-014
lhumerus -28.3341 -4.87037 87.5247
lradius 40.5278
lwrist -4.13789
lhand -18.3814 23.2884
lfingers 7.12502
lthumb 7.90226 53.1208
rfemur -26.136 -0.99837 17.883
rtibia 24.4586
rfoot -8.41565 8.22294
rtoes -25.5219
lfemur 6.0519 -8.75291 -28.991
ltibia 16.5014
lfoot -10.8825 -19.0127
ltoes 24.9476
2158
root -0.256833 17.688 15.5706 -900.427 50.4285 -179.14
lowerback 11.3741 0.395425 -2.77409
upperback 1.14447 0.252318 3.50829e-006
thorax -5.19278 0.215599 1.5223
lowerneck -17.4285 -4.12446 -9.31358
upperneck 30.9313 -4.02817 6.34873
head 13.752 -1.61404 3.55989
rclavicle 2.95941e-014 -2.34566e-014
rhumerus -39.7228 -8.64943 -82.1497
rradius 29.7908
rwrist 5.09763
rhand -16.2286 8.12239
rfingers 7.12502
rthumb 9.9796 -21.621
lclavicle 2.95941e-014 -2.34566e-014
lhumerus -28.1481 -4.66324 87.4698
lradius 40.242
lwrist -4.24882
lhand -18.3398 23.214
lfingers 7.12502
lthumb 7.94241 53.0448
rfemur -26.2247 -1.50578 18.3894
rtibia 24.4614
rfoot -8.4576 8.41096
rtoes -26.1475
lfemur 6.63992 -8.28086 -28.8629
ltibia 16.075
lfoot -11.2892 -19.1431
ltoes 22.1955
2159
root -0.160496 17.6837 15.5276 -900.446 50.0151 -179.128
lowerback 11.4344 0.379658 -2.75356
upperback 1.16163 0.230556 -0.0683463
thorax -5.20691 0.204643 1.44237
lowerneck -17.3882 -4.09615 -9.12361
upperneck 30.8872 -4.01739 6.25193
head 13.7145 -1.59907 3.48787
rclavicle -4.27387e-015 -3.18055e-015
rhumerus -39.5979 -8.86582 -82.2318
rradius 29.7509
rwrist 5.25821
rhand -16.4234 7.95285
rfingers 7.12502
rthumb 9.79166 -21.7995
lclavicle -4.27387e-015 -3.18055e-015
lhumerus -28.0499 -4.74695 87.371
lradius 40.0073
lwrist -4.26753
lhand -18.2916 23.4221
lfingers 7.12502
lthumb 7.98889 53.2512
rfemur -26.2268 -1.83661 18.8299
rtibia 24.583
rfoot -8.30888 8.31388
rtoes -25.8081
lfemur 7.28329 -7.92843 -28.7454
ltibia 15.6336
lfoot -11.2437 -19.3517
ltoes 20.9273
2160
root -0.0627419 17.6823 15.4774 -900.688 49.6651 -179.367
lowerback 11.3784 0.34845 -2.77862
upperback 1.25188 0.185291 -0.235955
thorax -5.07821 0.180877 1.28827
lowerneck -17.3745 -4.0837 -9.07052
upperneck 30.8109 -4.05586 6.36275
head 13.6828 -1.59485 3.51435
rclavicle -3.57315e-014 1.39149e-014
rhumerus -39.3655 -8.96935 -82.4812
rradius 29.7241
rwrist 5.23236
rhand -16.5921 7.79356
rfingers 7.12502
rthumb 9.62895 -21.9664
lclavicle -3.57315e-014 1.39149e-014
lhumerus -27.8983 -4.94104 87.1652
lradius 39.7385
lwrist -4.22339
lhand -17.715 23.912
lfingers 7.12502
lthumb 8.54537 53.7191
rfemur -26.1537 -2.2788 19.0976
rtibia 24.7518
rfoot -8.00768 8.39967
rtoes -25.6032
lfemur 7.93916 -7.98103 -28.8922
ltibia 15.2648
lfoot -10.4337 -19.4205
ltoes 22.9972
2161
root 0.0369263 17.6808 15.4225 -900.889 49.3598 -179.7
lowerback 11.5679 0.263509 -3.17339
upperback 1.01926 0.0051513 -0.214333
thorax -5.421 0.105123 1.56172
lowerneck -17.1877 -3.98084 -9.178
upperneck 30.9626 -3.8799 6.41263
head 13.6942 -1.51833 3.59144
rclavicle -1.19271e-015 1.19271e-015
rhumerus -39.5545 -8.45502 -82.5654
rradius 29.7581
rwrist 5.11008
rhand -16.52 7.88954
rfingers 7.12502
rthumb 9.69847 -21.8672
lclavicle -1.19271e-015 1.19271e-015
lhumerus -28.3739 -4.47554 87.041
lradius 39.5699
lwrist -4.21167
lhand -16.6976 24.4825
lfingers 7.12502
lthumb 9.52711 54.2471
rfemur -26.1642 -2.61583 19.2866
rtibia 24.9526
rfoot -7.75722 8.3724
rtoes -26.5268
lfemur 8.44929 -8.02152 -29.11
ltibia 14.9665
lfoot -9.70865 -19.3726
ltoes 24.651
2162
root 0.138634 17.6795 15.3603 -900.901 49.0694 -179.78
lowerback 11.3996 0.228228 -3.12731
upperback 1.03614 -0.033227 -0.290819
thorax -5.30743 0.0825625 1.46152
lowerneck -17.1546 -3.94833 -9.25001
upperneck 30.9313 -3.8637 6.57961
head 13.6772 -1.49628 3.67401
rclavicle 2.08724e-015 1.19271e-015
rhumerus -39.3948 -8.50366 -82.6418
rradius 29.7366
rwrist 5.14237
rhand -16.6782 7.97421
rfingers 7.12502
rthumb 9.54582 -21.7896
lclavicle 2.08724e-015 1.19271e-015
lhumerus -28.5727 -4.36733 86.9167
lradius 39.4681
lwrist -4.15836
lhand -17.1359 24.5982
lfingers 7.12502
lthumb 9.10424 54.3817
rfemur -26.1191 -3.23667 19.7238
rtibia 25.1785
rfoot -7.49772 8.74105
rtoes -27.5072
lfemur 8.94756 -7.98077 -29.1566
ltibia 14.7899
lfoot -9.31815 -19.2623
ltoes 24.6092
2163
root 0.237333 17.6805 15.3073 -900.955 48.6389 -179.852
lowerback 11.3733 0.174052 -3.05659
upperback 1.05957 -0.0978512 -0.380252
thorax -5.26516 0.0482127 1.33803
lowerneck -17.2389 -3.93385 -9.30215
upperneck 30.9943 -3.85948 6.71943
head 13.7268 -1.47879 3.74406
rclavicle -6.75868e-015 -1.43125e-014
rhumerus -39.285 -8.48815 -82.8382
rradius 29.9377
rwrist 5.0229
rhand -16.8111 7.49533
rfingers 7.12502
rthumb 9.41761 -22.2743
lclavicle -6.75868e-015 -1.43125e-014
lhumerus -28.8048 -4.18791 86.8244
lradius 39.4388
lwrist -4.28774
lhand -17.9838 24.3935
lfingers 7.12502
lthumb 8.28598 54.211
rfemur -26.001 -3.82638 20.1381
rtibia 25.4171
rfoot -7.13909 9.08118
rtoes -27.0355
lfemur 9.35565 -7.95879 -29.1049
ltibia 14.7532
lfoot -8.72094 -19.4541
ltoes 25.3423
2164
root 0.33315 17.6865 15.2687 -901.001 48.0844 -179.953
lowerback 11.4485 0.20261 -3.31631
upperback 1.08804 -0.0873527 -0.272593
thorax -5.277 0.0607972 1.59568
lowerneck -17.4216 -4.02974 -9.39431
upperneck 31.0563 -3.9284 6.64128
head 13.8031 -1.52883 3.71879
rclavicle -3.10601e-014 -4.37326e-015
rhumerus -39.1332 -8.26682 -82.8281
rradius 30.2611
rwrist 4.41083
rhand -16.7772 7.12771
rfingers 7.12502
rthumb 9.45034 -22.6404
lclavicle -3.10601e-014 -4.37326e-015
lhumerus -28.774 -4.05361 87.0158
lradius 39.1461
lwrist -4.41528
lhand -17.8193 24.425
lfingers 7.12502
lthumb 8.44475 54.2361
rfemur -25.8626 -3.74843 20.384
rtibia 25.6657
rfoot -6.8169 8.61411
rtoes -24.7795
lfemur 9.57139 -7.84479 -28.9285
ltibia 14.8297
lfoot -8.12785 -19.9505
ltoes 25.8494
2165
root 0.437992 17.6932 15.2158 -900.97 47.692 -179.933
lowerback 11.2788 0.365877 -3.59948
upperback 1.2137 0.120121 -0.0102272
thorax -5.06193 0.167284 1.99785
lowerneck -17.6029 -4.24009 -9.63312
upperneck 31.0121 -4.088 6.45471
head 13.8457 -1.65406 3.65329
rclavicle -3.11346e-014 -2.38542e-015
rhumerus -38.8078 -8.56671 -82.3086
rradius 30.3003
rwrist 4.2437
rhand -16.9735 7.17318
rfingers 7.12502
rthumb 9.26087 -22.6034
lclavicle -3.11346e-014 -2.38542e-015
lhumerus -28.5452 -4.20971 87.5213
lradius 38.6844
lwrist -4.27745
lhand -17.7253 24.6118
lfingers 7.12502
lthumb 8.53545 54.4193
rfemur -25.6137 -3.8675 20.7542
rtibia 25.9576
rfoot -6.60974 8.74088
rtoes -21.276
lfemur 9.8398 -7.74218 -28.7362
ltibia 14.9592
lfoot -7.64467 -20.3239
ltoes 26.2407
